# xmcd
#
# Track frame offsets: 
#        183
#        24463
#        39275
#        69215
#        93863
#        112305
#        161650
#        194705
#        208581
#        221338
#        248421
#        263618
#        289616
#        303051
#        318738
#
# Disc length: 4799 seconds
#
# Revision: 0
# Processed by: cddbd v1.5.1PL2 Copyright (c) Steve Scherf et al.
# Submitted via: ExactAudioCopy v0.95b1
#
DISCID=cb12bd0f
DTITLE=Savoy Brown - Street Corner Talking
DYEAR=1971
DGENRE=Blues
TTITLE0=Tell Mama
TTITLE1=Let It Rock
TTITLE2=I Can`t Get Next To You
TTITLE3=Time Does Tell
TTITLE4=Street Corner Talking
TTITLE5=All I Can Do
TTITLE6=Wang Dang Dooble
TTITLE7=Tell Mama (single vers.)
TTITLE8=Doin` Fine
TTITLE9=Lost And Lonely Child
TTITLE10=I`ll Make Everything Alright
TTITLE11=Troubled By These Days And Times
TTITLE12=If I Could See An End
TTITLE13=It`ll Make You Happy
TTITLE14=Hellbound Train
EXTD=
EXTT0=
EXTT1=
EXTT2=
EXTT3=
EXTT4=
EXTT5=
EXTT6=
EXTT7=
EXTT8=
EXTT9=
EXTT10=
EXTT11=
EXTT12=
EXTT13=
EXTT14=
PLAYORDER=
